<?xml version="1.0" encoding="UTF-8" standalone="no"?>
<svg
   width="500"
   height="500"
   viewBox="0 0 500 500"
   version="1.1"
   id="svg4"
   sodipodi:docname="logo.svg"
   inkscape:version="1.4.4 (dcaf3e7d9e, 2026-05-05)"
   xmlns:inkscape="http://www.inkscape.org/namespaces/inkscape"
   xmlns:sodipodi="http://sodipodi.sourceforge.net/DTD/sodipodi-0.dtd"
   xmlns="http://www.w3.org/2000/svg"
   xmlns:svg="http://www.w3.org/2000/svg">
  <defs
     id="defs4" />
  <sodipodi:namedview
     id="namedview4"
     pagecolor="#ffffff"
     bordercolor="#000000"
     borderopacity="0.25"
     inkscape:showpageshadow="2"
     inkscape:pageopacity="0.0"
     inkscape:pagecheckerboard="0"
     inkscape:deskcolor="#d1d1d1"
     inkscape:zoom="1.2099419"
     inkscape:cx="238.4412"
     inkscape:cy="279.35225"
     inkscape:window-width="1235"
     inkscape:window-height="975"
     inkscape:window-x="0"
     inkscape:window-y="0"
     inkscape:window-maximized="1"
     inkscape:current-layer="svg4" />
  <title
     id="title1">Puzzle CI Logo</title>
  <path
     d="m 144.04047,151.41 -1.5919,0.79 -2.1855,1.46 -2.06408,2.15 -1.32209,2.44 -0.75548,2.73 L 136,163.62 v 2.59 2.59 2.63 2.74 2.64 2.58 2.59 2.64 2.73 2.64 2.73 2.64 2.59 2.59 2.63 2.74 2.63 2.59 2.59 2.64 2.73 2.64 2.73 2.64 2.59 2.58 2.64 2.73 2.64 2.59 2.59 2.63 2.74 2.64 2.73 l 0.74199,1.81 1.457,0.97 h 2.3204 2.37437 2.45531 2.37437 2.3339 2.33389 2.37437 2.45531 2.37437 2.45531 2.37437 l 2.33389,0.34 1.44351,1.27 0.4452,2.15 -0.4452,2.74 -0.70152,2.63 -0.60708,2.59 -0.5801,2.59 -0.31029,2.64 0.17538,2.73 0.5801,2.64 1.01181,2.73 1.3086,2.64 1.76728,2.59 2.19899,2.1 2.36088,1.66 2.4688,0.97 2.37437,0.49 2.3204,0.15 2.3339,-0.15 2.37437,-0.49 2.45531,-1.17 2.37437,-1.61 2.19899,-2.3 1.75379,-2.44 1.32209,-2.58 0.8769,-2.59 0.44519,-2.64 v -2.73 l -0.31028,-2.64 -0.43171,-2.59 -0.5801,-2.59 -0.60708,-2.63 -0.4452,-2.74 0.62058,-2.15 1.57841,-1.27 2.37437,-0.34 h 2.32041 2.33389 2.37437 2.45531 2.37437 2.33389 2.3339 2.36088 2.4688 2.37437 2.45531 l 2.06408,-0.49 1.32209,-1.31 0.4452,-2.25 v -2.64 -2.73 -2.64 -2.59 -2.58 -2.64 -2.73 -2.64 -2.74 -2.63 -2.59 -2.59 l -0.75549,-1.8 -1.57841,-0.64 -2.37437,0.49 -2.33389,0.78 -2.32041,0.68 -2.37437,0.49 -2.4688,0.15 -2.37437,-0.15 -2.45531,-0.68 -2.37437,-0.98 -2.3204,-1.61 -2.3339,-2.1 -1.92917,-2.64 -1.59191,-2.73 -0.74199,-2.64 -0.56661,-2.59 v -2.58 l 0.12142,-2.64 0.75548,-2.73 1.01181,-2.64 1.75379,-2.74 2.06408,-2.44 2.3339,-1.95 2.3204,-1.32 2.37437,-0.83 2.4688,-0.49 2.37437,-0.14 2.3204,0.14 2.3339,0.49 2.37437,0.69 2.45531,0.78 2.06408,0.19 1.32209,-0.97 0.4452,-2.15 v -2.59 -2.59 -2.64 -2.73 -2.64 -2.58 -2.59 -2.64 -2.73 -2.64 -2.73 -2.64 l -0.75549,-1.95 -1.57841,-0.98 -2.37437,-0.15 h -2.45531 -2.37437 -2.33389 -2.3339 -2.37437 -2.45531 -2.37437 -2.45531 -2.37437 -2.33389 -2.32041 -2.37436 -2.46881 -2.37436 -2.32041 -2.33389 -2.37437 -2.45531 -2.37437 -2.45531 -2.37437 -2.3339 -2.33389 -2.37437 -2.45531 -2.37437 -2.3339 -2.3204 -2.37437 -2.45531 -2.37437 -2.4688 -2.37437 -1.75379 z"
     fill="#6e9dea"
     id="path1"
     style="stroke-width:1.1615" />
  <path
     d="m 290.10456,98.68 -0.4317,1.76 -0.62058,2.63 -0.70152,2.59 -0.62057,2.44 -0.70152,2.59 -0.60708,2.64 -0.71501,2.59 -0.60708,2.44 -0.70152,2.59 -0.62057,2.63 -0.56661,2.59 -0.5801,2.44 -0.8769,2.59 -1.49747,1.32 h -1.8887 l -2.1855,-1.47 -2.3339,-1.61 -2.37436,-1.46 -2.3339,-1.17 -2.1855,-0.64 -2.33389,-0.15 -2.37437,0.15 -2.3339,0.49 -2.3204,0.83 -2.37437,1.27 -2.33389,1.95 -1.88871,2.3 -1.61888,2.58 -1.01181,2.64 -0.75548,2.59 -0.12141,2.44 v 2.59 l 0.4317,2.63 0.70152,2.59 1.18718,2.44 1.7538,2.45 2.07757,2.29 2.3204,1.76 2.19899,1.17 2.3339,0.63 2.37436,0.35 2.32041,0.14 h 2.19899 2.33389 l 2.37437,0.49 1.3086,1.32 0.26981,2.25 -0.70151,2.63 -0.62058,2.59 -0.56661,2.44 -0.5801,2.59 -0.60708,2.64 -0.70152,2.58 -0.62057,2.45 -0.56661,2.58 -0.5801,2.64 -0.60709,2.59 -0.70151,2.44 -0.62058,2.59 0.31029,2.15 1.32209,1.46 2.19899,0.78 2.3204,0.69 2.37437,0.78 2.3339,0.68 2.3204,0.78 2.37437,0.69 2.33389,0.63 2.19899,0.63 2.32041,0.69 2.37437,0.78 2.33389,0.68 2.19899,0.64 1.75379,-0.49 1.01181,-1.47 0.17538,-2.44 -0.17538,-2.44 -0.13491,-2.59 0.13491,-2.63 0.31028,-2.59 0.56662,-2.44 1.05227,-2.59 1.457,-2.64 1.8887,-2.44 2.06408,-1.95 2.3339,-1.47 2.36088,-0.97 2.33389,-0.64 2.3339,-0.14 2.37436,0.14 2.32041,0.64 2.19899,0.97 2.33389,1.81 2.19899,2.3 1.7538,2.58 1.18718,2.45 0.74199,2.58 0.5801,2.64 0.12142,2.59 -0.12142,2.44 -0.5801,2.59 -0.8769,2.63 -1.18718,2.59 -1.32209,2.44 -1.44351,2.59 -0.31029,2.15 0.8769,1.46 2.19899,0.79 2.33389,0.68 2.37437,0.78 2.32041,0.68 2.33389,0.79 2.37437,0.68 2.33389,0.63 2.1855,0.64 2.3339,0.68 2.37437,0.78 2.33389,0.69 2.1855,0.78 2.33389,0.68 h 2.06409 l 1.45699,-1.17 0.8769,-2.1 0.60708,-2.59 0.71501,-2.63 0.60708,-2.59 0.56661,-2.44 0.58011,-2.59 0.60708,-2.64 0.71501,-2.59 0.60708,-2.44 0.70152,-2.59 0.62057,-2.63 0.70152,-2.59 0.74199,-2.59 0.75548,-2.63 0.56661,-2.59 0.56661,-2.44 0.62057,-2.59 0.70152,-2.64 0.62057,-2.59 0.70152,-2.44 0.60708,-2.59 0.71501,-2.63 0.60709,-2.59 0.70151,-2.44 0.62058,-2.59 0.70151,-2.64 0.62058,-2.58 0.56661,-2.45 0.56661,-2.58 0.62057,-2.64 0.70152,-2.59 0.62057,-2.59 0.70152,-2.63 0.60708,-2.59 0.4452,-2.44 v -2.59 l -0.4452,-2.64 -1.18718,-2.58 -1.75379,-2.1 -2.3339,-1.66 -2.36088,-0.98 -2.33389,-0.64 -2.19899,-0.63 -2.3339,-0.83 -2.36087,-0.83 -2.3339,-0.64 -2.19899,-0.63 -2.33389,-0.68 -2.36088,-0.79 -2.33389,-0.68 -2.19899,-0.63 -2.3339,-0.64 -2.37437,-0.68 -2.3204,-0.78 -2.3339,-0.69 -2.37436,-0.78 -2.32041,-0.68 -2.19899,-0.64 -2.33389,-0.63 -2.37437,-0.68 -2.32041,-0.79 -2.19898,-0.68 -2.3339,-0.78 -2.37437,-0.68 -2.3204,-0.79 -2.19899,-0.68 -2.3339,-0.78 -2.37436,-0.68 -2.32041,-0.64 -2.19899,-0.63 -2.33389,-0.69 -2.37437,-0.78 -2.3204,-0.68 -2.19899,-0.64 -2.3339,-0.63 -2.37437,-0.69 -1.75379,-0.48 z"
     fill="#2d6ad5"
     id="path2"
     style="stroke-width:1.1615" />
  <path
     d="m 282.02361,223.48 -1.45699,0.49 -2.19899,0.83 -2.1855,1.13 -2.19899,1.66 -2.06408,2.1 -1.59191,2.58 -1.18718,2.64 -0.74199,2.59 -0.44519,2.44 -0.12142,2.44 0.12142,2.44 0.44519,2.44 0.74199,2.45 0.75548,2.44 0.56661,2.44 -0.31028,2.29 -1.13323,1.47 -2.19898,0.63 h -2.37437 -2.3339 -2.19899 -2.19898 -2.1855 -2.19899 -2.19899 -2.19899 -2.19898 -2.19899 l -1.8887,0.34 -1.18719,1.13 -0.4317,2.1 v 2.63 2.59 2.44 2.44 2.45 2.44 2.44 l 0.4317,1.95 1.18719,0.98 1.8887,0.15 2.19899,-0.15 h 2.33389 l 2.37437,0.15 2.3204,0.48 2.19899,0.83 2.19899,0.98 2.19899,1.12 2.19899,1.47 2.19898,1.95 2.06409,2.3 1.8887,2.44 1.44351,2.44 1.32209,2.44 1.05227,2.59 0.8769,2.63 0.5801,2.59 0.2968,2.44 0.1349,2.45 -0.1349,2.44 -0.17538,2.44 -0.43171,2.44 -0.56661,2.44 -0.89038,2.44 -1.01181,2.44 -1.17369,2.45 -1.63238,2.44 -2.02361,2.58 -2.37437,2.3 -2.3204,1.95 -2.19899,1.32 -2.19899,1.12 -2.19899,0.83 -2.19898,0.64 -2.19899,0.34 -2.19899,0.15 -2.1855,-0.15 -2.19899,-0.34 -1.76728,0.15 -1.01181,1.31 -0.29679,2.3 v 2.59 2.44 2.44 2.44 2.44 2.44 2.45 l 0.56661,1.8 1.32209,0.98 2.06408,0.14 h 2.19899 2.3204 2.37437 2.3339 2.19899 2.19898 2.1855 2.19899 2.19899 2.19899 2.19898 2.19899 2.19899 2.32041 2.37436 2.3339 2.19899 2.19899 2.18549 2.19899 2.19899 2.19899 2.19899 2.19898 2.19899 2.19899 2.32041 2.37436 2.3339 2.19899 2.1855 2.19898 l 2.19899,-0.34 2.19899,-0.63 2.06408,-1.47 1.7538,-1.95 1.14671,-2.44 0.62057,-2.44 0.12142,-2.59 v -2.64 -2.59 -2.44 -2.44 -2.44 -2.44 -2.44 -2.44 -2.45 -2.44 -2.44 -2.44 -2.59 -2.63 -2.59 -2.44 -2.44 -2.45 -2.44 -2.44 -2.44 -2.44 -2.44 -2.44 -2.59 -2.64 -2.59 -2.44 -2.44 -2.44 -2.44 -2.44 -2.45 -2.44 -2.44 -2.44 -2.59 l -0.43171,-2.15 -1.18718,-1.27 -1.8887,-0.34 h -2.19899 -2.19899 -2.19899 -2.19898 -2.1855 -2.19899 -2.19899 -2.19899 -2.19899 -2.33389 l -2.1855,-0.63 -1.18718,-1.47 v -2.29 l 0.74199,-2.44 0.70152,-2.44 0.62057,-2.45 0.4317,-2.44 0.13491,-2.44 -0.13491,-2.44 -0.29679,-2.44 -0.75548,-2.44 -1.14672,-2.59 -1.75379,-2.64 -2.06408,-2.24 -2.19899,-1.66 -2.19899,-1.13 -2.19899,-0.83 -2.18549,-0.49 -1.63238,-0.14 z"
     fill="#5187e1"
     id="path3"
     style="stroke-width:1.1615" />
  <path
     d="m 136,271.53 v 1.61 2.44 2.45 2.44 2.44 2.44 2.59 2.63 2.59 2.44 2.45 2.44 2.44 2.44 2.44 2.44 2.44 2.45 2.44 2.44 2.44 2.59 2.63 2.59 2.44 2.44 2.45 2.44 2.44 2.44 2.44 2.44 2.44 2.45 l 0.12142,2.44 0.62057,2.44 1.14671,2.44 1.92918,2.1 2.19898,1.46 2.3339,0.69 2.1855,0.14 h 2.19898 2.19899 2.19899 2.19899 2.19899 2.19899 2.18549 2.19899 2.19899 2.19899 2.19899 2.33389 2.36088 2.33389 2.19899 2.19899 2.19899 2.19899 2.1855 2.19898 2.19899 2.19899 2.19899 2.19899 2.19899 2.19898 2.32041 2.37437 2.33389 2.19899 2.1855 2.19899 2.19898 2.19899 2.19899 2.19899 2.19899 l 1.4435,-0.83 0.75549,-1.61 v -2.44 -2.44 -2.44 -2.59 -2.64 -2.58 -2.44 -2.45 -2.44 -2.44 -2.44 -2.44 -2.44 l 0.29679,-2.44 1.01181,-1.62 1.76728,-0.48 2.1855,0.63 2.19899,0.98 2.33389,0.97 2.37437,0.83 2.3204,0.49 h 2.19899 l 2.19899,-0.34 2.19899,-0.49 2.19899,-0.83 2.19899,-1.27 2.19898,-1.95 1.88871,-2.3 1.48398,-2.44 0.89038,-2.44 0.56661,-2.44 0.31029,-2.44 v -2.44 l -0.44519,-2.59 -0.74199,-2.64 -1.18719,-2.59 -1.457,-2.29 -1.8887,-2.1 -2.06408,-1.81 -2.19899,-1.27 -2.19898,-0.83 -2.1855,-0.34 -2.19899,-0.14 -2.19899,0.14 -2.19899,0.49 -2.19899,0.83 -2.19898,0.83 -2.19899,0.78 -2.1855,0.49 -1.76728,-0.63 -1.01181,-1.81 -0.29679,-2.59 v -2.44 -2.44 -2.44 -2.44 -2.45 -2.44 -2.44 -2.44 l -0.58011,-1.95 -1.32209,-1.13 -2.06408,-0.34 h -2.19899 -2.3204 -2.37437 -2.33389 -2.19899 -2.1855 -2.19899 l -1.32209,0.83 -0.56661,1.61 0.12142,2.44 v 2.45 l -0.12142,2.44 -0.31029,2.44 -0.5801,2.44 -0.74199,2.44 -1.0118,2.44 -1.32209,2.59 -1.7538,2.64 -2.06408,2.59 -2.19899,2.29 -2.19899,1.76 -2.19898,1.46 -2.1855,0.98 -2.19899,0.98 -2.19899,0.68 -2.19899,0.49 -2.19898,0.14 h -2.19899 l -2.19899,-0.14 -2.1855,-0.34 -2.19899,-0.64 -2.19898,-0.83 -2.3339,-1.12 -2.37437,-1.47 -2.3204,-1.95 -2.19899,-2.29 -2.06408,-2.45 -1.76729,-2.44 -1.3086,-2.44 -1.0118,-2.44 -0.75548,-2.44 -0.56661,-2.44 -0.31029,-2.44 -0.13491,-2.45 v -2.44 l 0.13491,-2.44 -0.4317,-1.81 -1.32209,-0.97 -2.19899,-0.15 h -2.3339 -2.1855 -2.19898 -2.19899 -2.19899 -2.19899 -1.61889 z"
     fill="#71a0ed"
     id="path4"
     style="stroke-width:1.1615" />
</svg>
